<mxfile host="drawio-plugin" modified="2024-01-04T09:51:01.200Z" agent="5.0 (Windows NT 6.2; Win64; x64) AppleWebKit/537.36 (KHTML, like Gecko) Chrome/104.0.5112.102 Safari/537.36" etag="ngCihO8fdw4MN4602rkQ" version="20.5.3" type="embed" pages="3"><diagram name="Page-1" id="9f46799a-70d6-7492-0946-bef42562c5a5"><mxGraphModel dx="479" dy="446" grid="1" gridSize="10" guides="1" tooltips="1" connect="1" arrows="1" fold="1" page="1" pageScale="1" pageWidth="1100" pageHeight="850" background="#F1FAEE" math="0" shadow="0"><root><mxCell id="0"/><mxCell id="1" parent="0"/><mxCell id="78961159f06e98e8-17" value="ApiResponse" style="swimlane;html=1;fontStyle=1;align=center;verticalAlign=top;childLayout=stackLayout;horizontal=1;startSize=26;horizontalStack=0;resizeParent=1;resizeLast=0;collapsible=1;marginBottom=0;swimlaneFillColor=#ffffff;rounded=0;shadow=0;comic=0;labelBackgroundColor=none;strokeWidth=1;fillColor=#A8DADC;fontFamily=Verdana;fontSize=12;strokeColor=#457B9D;fontColor=#1D3557;" parent="1" vertex="1"><mxGeometry x="80" y="108" width="160" height="100" as="geometry"><mxRectangle x="90" y="70" width="130" height="30" as="alternateBounds"/></mxGeometry></mxCell><mxCell id="78961159f06e98e8-21" value="- message: String" style="text;html=1;strokeColor=none;fillColor=none;align=left;verticalAlign=top;spacingLeft=4;spacingRight=4;whiteSpace=wrap;overflow=hidden;rotatable=0;points=[[0,0.5],[1,0.5]];portConstraint=eastwest;fontColor=#1D3557;" parent="78961159f06e98e8-17" vertex="1"><mxGeometry y="26" width="160" height="22" as="geometry"/></mxCell><mxCell id="78961159f06e98e8-23" value="- data: Object" style="text;html=1;strokeColor=none;fillColor=none;align=left;verticalAlign=top;spacingLeft=4;spacingRight=4;whiteSpace=wrap;overflow=hidden;rotatable=0;points=[[0,0.5],[1,0.5]];portConstraint=eastwest;fontColor=#1D3557;" parent="78961159f06e98e8-17" vertex="1"><mxGeometry y="48" width="160" height="26" as="geometry"/></mxCell><mxCell id="78961159f06e98e8-30" value="User" style="swimlane;html=1;fontStyle=1;align=center;verticalAlign=top;childLayout=stackLayout;horizontal=1;startSize=26;horizontalStack=0;resizeParent=1;resizeLast=0;collapsible=1;marginBottom=0;swimlaneFillColor=#ffffff;rounded=0;shadow=0;comic=0;labelBackgroundColor=none;strokeWidth=1;fillColor=#A8DADC;fontFamily=Verdana;fontSize=12;strokeColor=#457B9D;fontColor=#1D3557;" parent="1" vertex="1"><mxGeometry x="320" y="10" width="160" height="277" as="geometry"/></mxCell><mxCell id="78961159f06e98e8-31" value="- Id: Integer" style="text;html=1;strokeColor=none;fillColor=none;align=left;verticalAlign=top;spacingLeft=4;spacingRight=4;whiteSpace=wrap;overflow=hidden;rotatable=0;points=[[0,0.5],[1,0.5]];portConstraint=eastwest;fontColor=#1D3557;" parent="78961159f06e98e8-30" vertex="1"><mxGeometry y="26" width="160" height="26" as="geometry"/></mxCell><mxCell id="78961159f06e98e8-32" value="- fullName: String" style="text;html=1;strokeColor=none;fillColor=none;align=left;verticalAlign=top;spacingLeft=4;spacingRight=4;whiteSpace=wrap;overflow=hidden;rotatable=0;points=[[0,0.5],[1,0.5]];portConstraint=eastwest;fontColor=#1D3557;" parent="78961159f06e98e8-30" vertex="1"><mxGeometry y="52" width="160" height="26" as="geometry"/></mxCell><mxCell id="78961159f06e98e8-33" value="- emailAddress: String" style="text;html=1;strokeColor=none;fillColor=none;align=left;verticalAlign=top;spacingLeft=4;spacingRight=4;whiteSpace=wrap;overflow=hidden;rotatable=0;points=[[0,0.5],[1,0.5]];portConstraint=eastwest;fontColor=#1D3557;" parent="78961159f06e98e8-30" vertex="1"><mxGeometry y="78" width="160" height="26" as="geometry"/></mxCell><mxCell id="78961159f06e98e8-34" value="- password: String" style="text;html=1;strokeColor=none;fillColor=none;align=left;verticalAlign=top;spacingLeft=4;spacingRight=4;whiteSpace=wrap;overflow=hidden;rotatable=0;points=[[0,0.5],[1,0.5]];portConstraint=eastwest;fontColor=#1D3557;" parent="78961159f06e98e8-30" vertex="1"><mxGeometry y="104" width="160" height="26" as="geometry"/></mxCell><mxCell id="78961159f06e98e8-36" value="- phoneNumber: String" style="text;html=1;strokeColor=none;fillColor=none;align=left;verticalAlign=top;spacingLeft=4;spacingRight=4;whiteSpace=wrap;overflow=hidden;rotatable=0;points=[[0,0.5],[1,0.5]];portConstraint=eastwest;fontColor=#1D3557;" parent="78961159f06e98e8-30" vertex="1"><mxGeometry y="130" width="160" height="26" as="geometry"/></mxCell><mxCell id="78961159f06e98e8-37" value="- isNotBlocked: boolean" style="text;html=1;strokeColor=none;fillColor=none;align=left;verticalAlign=top;spacingLeft=4;spacingRight=4;whiteSpace=wrap;overflow=hidden;rotatable=0;points=[[0,0.5],[1,0.5]];portConstraint=eastwest;fontColor=#1D3557;" parent="78961159f06e98e8-30" vertex="1"><mxGeometry y="156" width="160" height="26" as="geometry"/></mxCell><mxCell id="dkMxX4tF8mxdViq3S8h1-4" value="- timeStamps: LocalDateTime" style="text;html=1;strokeColor=none;fillColor=none;align=left;verticalAlign=top;spacingLeft=4;spacingRight=4;whiteSpace=wrap;overflow=hidden;rotatable=0;points=[[0,0.5],[1,0.5]];portConstraint=eastwest;fontColor=#1D3557;" parent="78961159f06e98e8-30" vertex="1"><mxGeometry y="182" width="160" height="38" as="geometry"/></mxCell><mxCell id="78961159f06e98e8-43" value="UserService" style="swimlane;html=1;fontStyle=1;align=center;verticalAlign=top;childLayout=stackLayout;horizontal=1;startSize=26;horizontalStack=0;resizeParent=1;resizeLast=0;collapsible=1;marginBottom=0;swimlaneFillColor=#ffffff;rounded=0;shadow=0;comic=0;labelBackgroundColor=none;strokeWidth=1;fillColor=#A8DADC;fontFamily=Verdana;fontSize=12;strokeColor=#457B9D;fontColor=#1D3557;" parent="1" vertex="1"><mxGeometry x="720" y="108" width="160" height="160" as="geometry"/></mxCell><mxCell id="78961159f06e98e8-51" value="" style="line;html=1;strokeWidth=1;fillColor=none;align=left;verticalAlign=middle;spacingTop=-1;spacingLeft=3;spacingRight=3;rotatable=0;labelPosition=right;points=[];portConstraint=eastwest;labelBackgroundColor=#F1FAEE;strokeColor=#457B9D;fontColor=#1D3557;" parent="78961159f06e98e8-43" vertex="1"><mxGeometry y="26" width="160" height="8" as="geometry"/></mxCell><mxCell id="78961159f06e98e8-52" value="+ createNewUser():" style="text;html=1;strokeColor=none;fillColor=none;align=left;verticalAlign=top;spacingLeft=4;spacingRight=4;whiteSpace=wrap;overflow=hidden;rotatable=0;points=[[0,0.5],[1,0.5]];portConstraint=eastwest;fontColor=#1D3557;" parent="78961159f06e98e8-43" vertex="1"><mxGeometry y="34" width="160" height="26" as="geometry"/></mxCell><mxCell id="78961159f06e98e8-53" value="+ authenticateUser():&amp;nbsp;" style="text;html=1;strokeColor=none;fillColor=none;align=left;verticalAlign=top;spacingLeft=4;spacingRight=4;whiteSpace=wrap;overflow=hidden;rotatable=0;points=[[0,0.5],[1,0.5]];portConstraint=eastwest;fontColor=#1D3557;" parent="78961159f06e98e8-43" vertex="1"><mxGeometry y="60" width="160" height="26" as="geometry"/></mxCell><mxCell id="dkMxX4tF8mxdViq3S8h1-7" value="+ changePassword():&amp;nbsp;" style="text;html=1;strokeColor=none;fillColor=none;align=left;verticalAlign=top;spacingLeft=4;spacingRight=4;whiteSpace=wrap;overflow=hidden;rotatable=0;points=[[0,0.5],[1,0.5]];portConstraint=eastwest;fontColor=#1D3557;" parent="78961159f06e98e8-43" vertex="1"><mxGeometry y="86" width="160" height="26" as="geometry"/></mxCell><mxCell id="78961159f06e98e8-56" value="Account&lt;br&gt;" style="swimlane;html=1;fontStyle=1;align=center;verticalAlign=top;childLayout=stackLayout;horizontal=1;startSize=26;horizontalStack=0;resizeParent=1;resizeLast=0;collapsible=1;marginBottom=0;swimlaneFillColor=#ffffff;rounded=0;shadow=0;comic=0;labelBackgroundColor=none;strokeWidth=1;fillColor=#A8DADC;fontFamily=Verdana;fontSize=12;strokeColor=#457B9D;fontColor=#1D3557;" parent="1" vertex="1"><mxGeometry x="80" y="320.00000000000006" width="160" height="260" as="geometry"/></mxCell><mxCell id="78961159f06e98e8-57" value="- Id: Integer" style="text;html=1;strokeColor=none;fillColor=none;align=left;verticalAlign=top;spacingLeft=4;spacingRight=4;whiteSpace=wrap;overflow=hidden;rotatable=0;points=[[0,0.5],[1,0.5]];portConstraint=eastwest;fontColor=#1D3557;" parent="78961159f06e98e8-56" vertex="1"><mxGeometry y="26" width="160" height="26" as="geometry"/></mxCell><mxCell id="78961159f06e98e8-58" value="- userId: Integer" style="text;html=1;strokeColor=none;fillColor=none;align=left;verticalAlign=top;spacingLeft=4;spacingRight=4;whiteSpace=wrap;overflow=hidden;rotatable=0;points=[[0,0.5],[1,0.5]];portConstraint=eastwest;fontColor=#1D3557;" parent="78961159f06e98e8-56" vertex="1"><mxGeometry y="52" width="160" height="26" as="geometry"/></mxCell><mxCell id="78961159f06e98e8-59" value="- accountBalance: BigDecimal" style="text;html=1;strokeColor=none;fillColor=none;align=left;verticalAlign=top;spacingLeft=4;spacingRight=4;whiteSpace=wrap;overflow=hidden;rotatable=0;points=[[0,0.5],[1,0.5]];portConstraint=eastwest;fontColor=#1D3557;" parent="78961159f06e98e8-56" vertex="1"><mxGeometry y="78" width="160" height="42" as="geometry"/></mxCell><mxCell id="78961159f06e98e8-60" value="- accountStatus: AccountStatus" style="text;html=1;strokeColor=none;fillColor=none;align=left;verticalAlign=top;spacingLeft=4;spacingRight=4;whiteSpace=wrap;overflow=hidden;rotatable=0;points=[[0,0.5],[1,0.5]];portConstraint=eastwest;fontColor=#1D3557;" parent="78961159f06e98e8-56" vertex="1"><mxGeometry y="120" width="160" height="40" as="geometry"/></mxCell><mxCell id="78961159f06e98e8-61" value="- tier: TierLevel" style="text;html=1;strokeColor=none;fillColor=none;align=left;verticalAlign=top;spacingLeft=4;spacingRight=4;whiteSpace=wrap;overflow=hidden;rotatable=0;points=[[0,0.5],[1,0.5]];portConstraint=eastwest;fontColor=#1D3557;" parent="78961159f06e98e8-56" vertex="1"><mxGeometry y="160" width="160" height="26" as="geometry"/></mxCell><mxCell id="78961159f06e98e8-62" value="- transactionPin: String" style="text;html=1;strokeColor=none;fillColor=none;align=left;verticalAlign=top;spacingLeft=4;spacingRight=4;whiteSpace=wrap;overflow=hidden;rotatable=0;points=[[0,0.5],[1,0.5]];portConstraint=eastwest;fontColor=#1D3557;" parent="78961159f06e98e8-56" vertex="1"><mxGeometry y="186" width="160" height="26" as="geometry"/></mxCell><mxCell id="78961159f06e98e8-63" value="- timeStamps: LocalDateTime" style="text;html=1;strokeColor=none;fillColor=none;align=left;verticalAlign=top;spacingLeft=4;spacingRight=4;whiteSpace=wrap;overflow=hidden;rotatable=0;points=[[0,0.5],[1,0.5]];portConstraint=eastwest;fontColor=#1D3557;" parent="78961159f06e98e8-56" vertex="1"><mxGeometry y="212" width="160" height="38" as="geometry"/></mxCell><mxCell id="78961159f06e98e8-69" value="AccountStatus" style="swimlane;html=1;fontStyle=1;align=center;verticalAlign=top;childLayout=stackLayout;horizontal=1;startSize=26;horizontalStack=0;resizeParent=1;resizeLast=0;collapsible=1;marginBottom=0;swimlaneFillColor=#ffffff;rounded=0;shadow=0;comic=0;labelBackgroundColor=none;strokeWidth=1;fillColor=#A8DADC;fontFamily=Verdana;fontSize=12;strokeColor=#457B9D;fontColor=#1D3557;" parent="1" vertex="1"><mxGeometry x="280" y="319.9999999999999" width="160" height="150" as="geometry"/></mxCell><mxCell id="78961159f06e98e8-70" value="ACTIVATED" style="text;html=1;strokeColor=none;fillColor=none;align=left;verticalAlign=top;spacingLeft=4;spacingRight=4;whiteSpace=wrap;overflow=hidden;rotatable=0;points=[[0,0.5],[1,0.5]];portConstraint=eastwest;fontColor=#1D3557;" parent="78961159f06e98e8-69" vertex="1"><mxGeometry y="26" width="160" height="26" as="geometry"/></mxCell><mxCell id="78961159f06e98e8-71" value="BLOCKED" style="text;html=1;strokeColor=none;fillColor=none;align=left;verticalAlign=top;spacingLeft=4;spacingRight=4;whiteSpace=wrap;overflow=hidden;rotatable=0;points=[[0,0.5],[1,0.5]];portConstraint=eastwest;fontColor=#1D3557;" parent="78961159f06e98e8-69" vertex="1"><mxGeometry y="52" width="160" height="26" as="geometry"/></mxCell><mxCell id="78961159f06e98e8-72" value="PENDING" style="text;html=1;strokeColor=none;fillColor=none;align=left;verticalAlign=top;spacingLeft=4;spacingRight=4;whiteSpace=wrap;overflow=hidden;rotatable=0;points=[[0,0.5],[1,0.5]];portConstraint=eastwest;fontColor=#1D3557;" parent="78961159f06e98e8-69" vertex="1"><mxGeometry y="78" width="160" height="26" as="geometry"/></mxCell><mxCell id="78961159f06e98e8-74" value="CLOSED" style="text;html=1;strokeColor=none;fillColor=none;align=left;verticalAlign=top;spacingLeft=4;spacingRight=4;whiteSpace=wrap;overflow=hidden;rotatable=0;points=[[0,0.5],[1,0.5]];portConstraint=eastwest;fontColor=#1D3557;" parent="78961159f06e98e8-69" vertex="1"><mxGeometry y="104" width="160" height="26" as="geometry"/></mxCell><mxCell id="78961159f06e98e8-82" value="Classname" style="swimlane;html=1;fontStyle=1;align=center;verticalAlign=top;childLayout=stackLayout;horizontal=1;startSize=26;horizontalStack=0;resizeParent=1;resizeLast=0;collapsible=1;marginBottom=0;swimlaneFillColor=#ffffff;rounded=0;shadow=0;comic=0;labelBackgroundColor=none;strokeWidth=1;fillColor=#A8DADC;fontFamily=Verdana;fontSize=12;strokeColor=#457B9D;fontColor=#1D3557;" parent="1" vertex="1"><mxGeometry x="280" y="480" width="160" height="104" as="geometry"/></mxCell><mxCell id="78961159f06e98e8-83" value="LEVEL 1" style="text;html=1;strokeColor=none;fillColor=none;align=left;verticalAlign=top;spacingLeft=4;spacingRight=4;whiteSpace=wrap;overflow=hidden;rotatable=0;points=[[0,0.5],[1,0.5]];portConstraint=eastwest;fontColor=#1D3557;" parent="78961159f06e98e8-82" vertex="1"><mxGeometry y="26" width="160" height="26" as="geometry"/></mxCell><mxCell id="78961159f06e98e8-84" value="LEVEL 2" style="text;html=1;strokeColor=none;fillColor=none;align=left;verticalAlign=top;spacingLeft=4;spacingRight=4;whiteSpace=wrap;overflow=hidden;rotatable=0;points=[[0,0.5],[1,0.5]];portConstraint=eastwest;fontColor=#1D3557;" parent="78961159f06e98e8-82" vertex="1"><mxGeometry y="52" width="160" height="26" as="geometry"/></mxCell><mxCell id="78961159f06e98e8-85" value="LEVEL 2" style="text;html=1;strokeColor=none;fillColor=none;align=left;verticalAlign=top;spacingLeft=4;spacingRight=4;whiteSpace=wrap;overflow=hidden;rotatable=0;points=[[0,0.5],[1,0.5]];portConstraint=eastwest;fontColor=#1D3557;" parent="78961159f06e98e8-82" vertex="1"><mxGeometry y="78" width="160" height="26" as="geometry"/></mxCell><mxCell id="78961159f06e98e8-95" value="AccountService" style="swimlane;html=1;fontStyle=1;align=center;verticalAlign=top;childLayout=stackLayout;horizontal=1;startSize=26;horizontalStack=0;resizeParent=1;resizeLast=0;collapsible=1;marginBottom=0;swimlaneFillColor=#ffffff;rounded=0;shadow=0;comic=0;labelBackgroundColor=none;strokeWidth=1;fillColor=#A8DADC;fontFamily=Verdana;fontSize=12;strokeColor=#457B9D;fontColor=#1D3557;" parent="1" vertex="1"><mxGeometry x="480" y="400" width="160" height="190" as="geometry"/></mxCell><mxCell id="78961159f06e98e8-103" value="" style="line;html=1;strokeWidth=1;fillColor=none;align=left;verticalAlign=middle;spacingTop=-1;spacingLeft=3;spacingRight=3;rotatable=0;labelPosition=right;points=[];portConstraint=eastwest;labelBackgroundColor=#F1FAEE;strokeColor=#457B9D;fontColor=#1D3557;" parent="78961159f06e98e8-95" vertex="1"><mxGeometry y="26" width="160" height="8" as="geometry"/></mxCell><mxCell id="78961159f06e98e8-104" value="+ createAccount(): Async" style="text;html=1;strokeColor=none;fillColor=none;align=left;verticalAlign=top;spacingLeft=4;spacingRight=4;whiteSpace=wrap;overflow=hidden;rotatable=0;points=[[0,0.5],[1,0.5]];portConstraint=eastwest;fontColor=#1D3557;" parent="78961159f06e98e8-95" vertex="1"><mxGeometry y="34" width="160" height="26" as="geometry"/></mxCell><mxCell id="spujJ3ZEnS3oy-5TZths-3" value="+ closeAccount():" style="text;html=1;strokeColor=none;fillColor=none;align=left;verticalAlign=top;spacingLeft=4;spacingRight=4;whiteSpace=wrap;overflow=hidden;rotatable=0;points=[[0,0.5],[1,0.5]];portConstraint=eastwest;fontColor=#1D3557;" parent="78961159f06e98e8-95" vertex="1"><mxGeometry y="60" width="160" height="26" as="geometry"/></mxCell><mxCell id="spujJ3ZEnS3oy-5TZths-2" value="+ creditAccount():" style="text;html=1;strokeColor=none;fillColor=none;align=left;verticalAlign=top;spacingLeft=4;spacingRight=4;whiteSpace=wrap;overflow=hidden;rotatable=0;points=[[0,0.5],[1,0.5]];portConstraint=eastwest;fontColor=#1D3557;" parent="78961159f06e98e8-95" vertex="1"><mxGeometry y="86" width="160" height="26" as="geometry"/></mxCell><mxCell id="spujJ3ZEnS3oy-5TZths-5" value="+ debitAccount():" style="text;html=1;strokeColor=none;fillColor=none;align=left;verticalAlign=top;spacingLeft=4;spacingRight=4;whiteSpace=wrap;overflow=hidden;rotatable=0;points=[[0,0.5],[1,0.5]];portConstraint=eastwest;fontColor=#1D3557;" parent="78961159f06e98e8-95" vertex="1"><mxGeometry y="112" width="160" height="26" as="geometry"/></mxCell><mxCell id="spujJ3ZEnS3oy-5TZths-4" value="+ updateTransPin():" style="text;html=1;strokeColor=none;fillColor=none;align=left;verticalAlign=top;spacingLeft=4;spacingRight=4;whiteSpace=wrap;overflow=hidden;rotatable=0;points=[[0,0.5],[1,0.5]];portConstraint=eastwest;fontColor=#1D3557;" parent="78961159f06e98e8-95" vertex="1"><mxGeometry y="138" width="160" height="26" as="geometry"/></mxCell><mxCell id="FkoF1-UWxb9s9e0Dq_Ev-1" value="+ accountExistsAndOpen():" style="text;html=1;strokeColor=none;fillColor=none;align=left;verticalAlign=top;spacingLeft=4;spacingRight=4;whiteSpace=wrap;overflow=hidden;rotatable=0;points=[[0,0.5],[1,0.5]];portConstraint=eastwest;fontColor=#1D3557;" parent="78961159f06e98e8-95" vertex="1"><mxGeometry y="164" width="160" height="26" as="geometry"/></mxCell><mxCell id="dkMxX4tF8mxdViq3S8h1-5" style="edgeStyle=orthogonalEdgeStyle;rounded=0;orthogonalLoop=1;jettySize=auto;html=1;entryX=1.017;entryY=0.748;entryDx=0;entryDy=0;entryPerimeter=0;labelBackgroundColor=#F1FAEE;strokeColor=#457B9D;fontColor=#1D3557;" parent="1" source="78961159f06e98e8-108" target="78961159f06e98e8-32" edge="1"><mxGeometry relative="1" as="geometry"><Array as="points"><mxPoint x="603" y="84"/></Array></mxGeometry></mxCell><mxCell id="78961159f06e98e8-108" value="UserDetails" style="swimlane;html=1;fontStyle=1;align=center;verticalAlign=top;childLayout=stackLayout;horizontal=1;startSize=26;horizontalStack=0;resizeParent=1;resizeLast=0;collapsible=1;marginBottom=0;swimlaneFillColor=#ffffff;rounded=0;shadow=0;comic=0;labelBackgroundColor=none;strokeWidth=1;fillColor=#A8DADC;fontFamily=Verdana;fontSize=12;strokeColor=#457B9D;fontColor=#1D3557;" parent="1" vertex="1"><mxGeometry x="520" y="9.99999999999983" width="160" height="147" as="geometry"/></mxCell><mxCell id="78961159f06e98e8-116" value="" style="line;html=1;strokeWidth=1;fillColor=none;align=left;verticalAlign=middle;spacingTop=-1;spacingLeft=3;spacingRight=3;rotatable=0;labelPosition=right;points=[];portConstraint=eastwest;labelBackgroundColor=#F1FAEE;strokeColor=#457B9D;fontColor=#1D3557;" parent="78961159f06e98e8-108" vertex="1"><mxGeometry y="26" width="160" height="8" as="geometry"/></mxCell><mxCell id="78961159f06e98e8-117" value="+ getUsername(): String" style="text;html=1;strokeColor=none;fillColor=none;align=left;verticalAlign=top;spacingLeft=4;spacingRight=4;whiteSpace=wrap;overflow=hidden;rotatable=0;points=[[0,0.5],[1,0.5]];portConstraint=eastwest;fontColor=#1D3557;" parent="78961159f06e98e8-108" vertex="1"><mxGeometry y="34" width="160" height="26" as="geometry"/></mxCell><mxCell id="78961159f06e98e8-120" value="+ getPassword(): String" style="text;html=1;strokeColor=none;fillColor=none;align=left;verticalAlign=top;spacingLeft=4;spacingRight=4;whiteSpace=wrap;overflow=hidden;rotatable=0;points=[[0,0.5],[1,0.5]];portConstraint=eastwest;fontColor=#1D3557;" parent="78961159f06e98e8-108" vertex="1"><mxGeometry y="60" width="160" height="26" as="geometry"/></mxCell><mxCell id="dkMxX4tF8mxdViq3S8h1-3" style="edgeStyle=orthogonalEdgeStyle;rounded=0;orthogonalLoop=1;jettySize=auto;html=1;entryX=0.5;entryY=0;entryDx=0;entryDy=0;labelBackgroundColor=#F1FAEE;strokeColor=#457B9D;fontColor=#1D3557;" parent="1" source="dkMxX4tF8mxdViq3S8h1-2" target="78961159f06e98e8-17" edge="1"><mxGeometry relative="1" as="geometry"/></mxCell><mxCell id="dkMxX4tF8mxdViq3S8h1-2" value="For Sending Response from the Server to any Api Calls." style="rounded=0;whiteSpace=wrap;html=1;fillColor=#A8DADC;strokeColor=#457B9D;fontColor=#1D3557;" parent="1" vertex="1"><mxGeometry x="80" y="20" width="160" height="60" as="geometry"/></mxCell><mxCell id="dkMxX4tF8mxdViq3S8h1-9" style="edgeStyle=orthogonalEdgeStyle;rounded=0;orthogonalLoop=1;jettySize=auto;html=1;entryX=0.5;entryY=0;entryDx=0;entryDy=0;labelBackgroundColor=#F1FAEE;strokeColor=#457B9D;fontColor=#1D3557;" parent="1" source="dkMxX4tF8mxdViq3S8h1-8" target="78961159f06e98e8-43" edge="1"><mxGeometry relative="1" as="geometry"/></mxCell><mxCell id="dkMxX4tF8mxdViq3S8h1-8" value="A new basic Account is created for each new User." style="rounded=0;whiteSpace=wrap;html=1;fillColor=#A8DADC;strokeColor=#457B9D;fontColor=#1D3557;" parent="1" vertex="1"><mxGeometry x="720" y="20" width="160" height="60" as="geometry"/></mxCell><mxCell id="spujJ3ZEnS3oy-5TZths-1" style="edgeStyle=orthogonalEdgeStyle;rounded=0;orthogonalLoop=1;jettySize=auto;html=1;exitX=0;exitY=0.5;exitDx=0;exitDy=0;labelBackgroundColor=#F1FAEE;strokeColor=#457B9D;fontColor=#1D3557;" parent="1" source="78961159f06e98e8-74" target="78961159f06e98e8-60" edge="1"><mxGeometry relative="1" as="geometry"/></mxCell><mxCell id="spujJ3ZEnS3oy-5TZths-8" style="edgeStyle=orthogonalEdgeStyle;rounded=0;orthogonalLoop=1;jettySize=auto;html=1;entryX=0.5;entryY=0;entryDx=0;entryDy=0;labelBackgroundColor=#F1FAEE;strokeColor=#457B9D;fontColor=#1D3557;" parent="1" source="spujJ3ZEnS3oy-5TZths-6" target="78961159f06e98e8-95" edge="1"><mxGeometry relative="1" as="geometry"/></mxCell><mxCell id="spujJ3ZEnS3oy-5TZths-6" value="Generates a 10 Digit Random Account Number using LocalThreadRandom" style="rounded=0;whiteSpace=wrap;html=1;fillColor=#A8DADC;strokeColor=#457B9D;fontColor=#1D3557;" parent="1" vertex="1"><mxGeometry x="480" y="320" width="160" height="60" as="geometry"/></mxCell><mxCell id="spujJ3ZEnS3oy-5TZths-7" style="edgeStyle=orthogonalEdgeStyle;rounded=0;orthogonalLoop=1;jettySize=auto;html=1;entryX=1;entryY=0.5;entryDx=0;entryDy=0;labelBackgroundColor=#F1FAEE;strokeColor=#457B9D;fontColor=#1D3557;" parent="1" source="78961159f06e98e8-83" target="78961159f06e98e8-61" edge="1"><mxGeometry relative="1" as="geometry"/></mxCell></root></mxGraphModel></diagram><diagram id="htCmjBTkJvywKn1LziI4" name="Page-2"><mxGraphModel dx="479" dy="446" grid="1" gridSize="10" guides="1" tooltips="1" connect="1" arrows="1" fold="1" page="1" pageScale="1" pageWidth="850" pageHeight="1100" background="#F1FAEE" math="0" shadow="0"><root><mxCell id="0"/><mxCell id="1" parent="0"/><mxCell id="sVUuw6z4oIxT4Uj7_42J-1" value="&lt;ol&gt;&lt;li&gt;&lt;font style=&quot;font-size: 16px;&quot;&gt;Two Templates for email and sms notification.&lt;/font&gt;&lt;/li&gt;&lt;li&gt;&lt;font style=&quot;font-size: 16px;&quot;&gt;The main task is performed by Notification Service.&lt;/font&gt;&lt;/li&gt;&lt;li&gt;&lt;font style=&quot;font-size: 16px;&quot;&gt;Registered and created new number on Twilio.&lt;/font&gt;&lt;/li&gt;&lt;/ol&gt;" style="rounded=1;whiteSpace=wrap;html=1;fillColor=#A8DADC;strokeColor=#457B9D;align=left;fontColor=#1D3557;" parent="1" vertex="1"><mxGeometry x="30" y="370" width="610" height="60" as="geometry"/></mxCell><mxCell id="wGOctn8nHw5DIO8HDX3O-6" style="edgeStyle=orthogonalEdgeStyle;rounded=0;orthogonalLoop=1;jettySize=auto;html=1;exitX=1;exitY=0.5;exitDx=0;exitDy=0;entryX=0;entryY=0.5;entryDx=0;entryDy=0;labelBackgroundColor=#F1FAEE;strokeColor=#457B9D;fontColor=#1D3557;" parent="1" source="wGOctn8nHw5DIO8HDX3O-1" target="wGOctn8nHw5DIO8HDX3O-4" edge="1"><mxGeometry relative="1" as="geometry"/></mxCell><mxCell id="wGOctn8nHw5DIO8HDX3O-1" value="EmailService" style="swimlane;html=1;fontStyle=1;align=center;verticalAlign=top;childLayout=stackLayout;horizontal=1;startSize=26;horizontalStack=0;resizeParent=1;resizeLast=0;collapsible=1;marginBottom=0;swimlaneFillColor=#ffffff;rounded=0;shadow=0;comic=0;labelBackgroundColor=none;strokeWidth=1;fillColor=#A8DADC;fontFamily=Verdana;fontSize=12;strokeColor=#457B9D;fontColor=#1D3557;" parent="1" vertex="1"><mxGeometry x="40" y="40" width="160" height="100" as="geometry"><mxRectangle x="90" y="70" width="130" height="30" as="alternateBounds"/></mxGeometry></mxCell><mxCell id="wGOctn8nHw5DIO8HDX3O-2" value="+ sendEmail()" style="text;html=1;strokeColor=none;fillColor=none;align=left;verticalAlign=top;spacingLeft=4;spacingRight=4;whiteSpace=wrap;overflow=hidden;rotatable=0;points=[[0,0.5],[1,0.5]];portConstraint=eastwest;fontColor=#1D3557;" parent="wGOctn8nHw5DIO8HDX3O-1" vertex="1"><mxGeometry y="26" width="160" height="22" as="geometry"/></mxCell><mxCell id="wGOctn8nHw5DIO8HDX3O-4" value="GmailService" style="swimlane;html=1;fontStyle=1;align=center;verticalAlign=top;childLayout=stackLayout;horizontal=1;startSize=26;horizontalStack=0;resizeParent=1;resizeLast=0;collapsible=1;marginBottom=0;swimlaneFillColor=#ffffff;rounded=0;shadow=0;comic=0;labelBackgroundColor=none;strokeWidth=1;fillColor=#A8DADC;fontFamily=Verdana;fontSize=12;strokeColor=#457B9D;fontColor=#1D3557;" parent="1" vertex="1"><mxGeometry x="240" y="40" width="160" height="100" as="geometry"><mxRectangle x="90" y="70" width="130" height="30" as="alternateBounds"/></mxGeometry></mxCell><mxCell id="wGOctn8nHw5DIO8HDX3O-5" value="+ sendEmail()" style="text;html=1;strokeColor=none;fillColor=none;align=left;verticalAlign=top;spacingLeft=4;spacingRight=4;whiteSpace=wrap;overflow=hidden;rotatable=0;points=[[0,0.5],[1,0.5]];portConstraint=eastwest;fontColor=#1D3557;" parent="wGOctn8nHw5DIO8HDX3O-4" vertex="1"><mxGeometry y="26" width="160" height="22" as="geometry"/></mxCell><mxCell id="wGOctn8nHw5DIO8HDX3O-7" style="edgeStyle=orthogonalEdgeStyle;rounded=0;orthogonalLoop=1;jettySize=auto;html=1;exitX=1;exitY=0.5;exitDx=0;exitDy=0;entryX=0;entryY=0.5;entryDx=0;entryDy=0;labelBackgroundColor=#F1FAEE;strokeColor=#457B9D;fontColor=#1D3557;" parent="1" source="wGOctn8nHw5DIO8HDX3O-8" target="wGOctn8nHw5DIO8HDX3O-10" edge="1"><mxGeometry relative="1" as="geometry"/></mxCell><mxCell id="wGOctn8nHw5DIO8HDX3O-8" value="SmsService" style="swimlane;html=1;fontStyle=1;align=center;verticalAlign=top;childLayout=stackLayout;horizontal=1;startSize=26;horizontalStack=0;resizeParent=1;resizeLast=0;collapsible=1;marginBottom=0;swimlaneFillColor=#ffffff;rounded=0;shadow=0;comic=0;labelBackgroundColor=none;strokeWidth=1;fillColor=#A8DADC;fontFamily=Verdana;fontSize=12;strokeColor=#457B9D;fontColor=#1D3557;" parent="1" vertex="1"><mxGeometry x="440" y="40" width="160" height="100" as="geometry"><mxRectangle x="90" y="70" width="130" height="30" as="alternateBounds"/></mxGeometry></mxCell><mxCell id="wGOctn8nHw5DIO8HDX3O-9" value="+ sendSms()" style="text;html=1;strokeColor=none;fillColor=none;align=left;verticalAlign=top;spacingLeft=4;spacingRight=4;whiteSpace=wrap;overflow=hidden;rotatable=0;points=[[0,0.5],[1,0.5]];portConstraint=eastwest;fontColor=#1D3557;" parent="wGOctn8nHw5DIO8HDX3O-8" vertex="1"><mxGeometry y="26" width="160" height="22" as="geometry"/></mxCell><mxCell id="wGOctn8nHw5DIO8HDX3O-10" value="TwilioService" style="swimlane;html=1;fontStyle=1;align=center;verticalAlign=top;childLayout=stackLayout;horizontal=1;startSize=26;horizontalStack=0;resizeParent=1;resizeLast=0;collapsible=1;marginBottom=0;swimlaneFillColor=#ffffff;rounded=0;shadow=0;comic=0;labelBackgroundColor=none;strokeWidth=1;fillColor=#A8DADC;fontFamily=Verdana;fontSize=12;strokeColor=#457B9D;fontColor=#1D3557;" parent="1" vertex="1"><mxGeometry x="640" y="40" width="160" height="100" as="geometry"><mxRectangle x="90" y="70" width="130" height="30" as="alternateBounds"/></mxGeometry></mxCell><mxCell id="wGOctn8nHw5DIO8HDX3O-11" value="+ sendSms()" style="text;html=1;strokeColor=none;fillColor=none;align=left;verticalAlign=top;spacingLeft=4;spacingRight=4;whiteSpace=wrap;overflow=hidden;rotatable=0;points=[[0,0.5],[1,0.5]];portConstraint=eastwest;fontColor=#1D3557;" parent="wGOctn8nHw5DIO8HDX3O-10" vertex="1"><mxGeometry y="26" width="160" height="22" as="geometry"/></mxCell><mxCell id="wGOctn8nHw5DIO8HDX3O-13" value="TwilioConfig" style="swimlane;html=1;fontStyle=1;align=center;verticalAlign=top;childLayout=stackLayout;horizontal=1;startSize=26;horizontalStack=0;resizeParent=1;resizeLast=0;collapsible=1;marginBottom=0;swimlaneFillColor=#ffffff;rounded=0;shadow=0;comic=0;labelBackgroundColor=none;strokeWidth=1;fillColor=#A8DADC;fontFamily=Verdana;fontSize=12;strokeColor=#457B9D;fontColor=#1D3557;" parent="1" vertex="1"><mxGeometry x="540" y="220" width="160" height="100" as="geometry"><mxRectangle x="90" y="70" width="130" height="30" as="alternateBounds"/></mxGeometry></mxCell><mxCell id="wGOctn8nHw5DIO8HDX3O-14" value="- accountSid: String" style="text;html=1;strokeColor=none;fillColor=none;align=left;verticalAlign=top;spacingLeft=4;spacingRight=4;whiteSpace=wrap;overflow=hidden;rotatable=0;points=[[0,0.5],[1,0.5]];portConstraint=eastwest;fontColor=#1D3557;" parent="wGOctn8nHw5DIO8HDX3O-13" vertex="1"><mxGeometry y="26" width="160" height="22" as="geometry"/></mxCell><mxCell id="wGOctn8nHw5DIO8HDX3O-16" value="- authToken: String" style="text;html=1;strokeColor=none;fillColor=none;align=left;verticalAlign=top;spacingLeft=4;spacingRight=4;whiteSpace=wrap;overflow=hidden;rotatable=0;points=[[0,0.5],[1,0.5]];portConstraint=eastwest;fontColor=#1D3557;" parent="wGOctn8nHw5DIO8HDX3O-13" vertex="1"><mxGeometry y="48" width="160" height="22" as="geometry"/></mxCell><mxCell id="wGOctn8nHw5DIO8HDX3O-15" value="- trailNumber: String" style="text;html=1;strokeColor=none;fillColor=none;align=left;verticalAlign=top;spacingLeft=4;spacingRight=4;whiteSpace=wrap;overflow=hidden;rotatable=0;points=[[0,0.5],[1,0.5]];portConstraint=eastwest;fontColor=#1D3557;" parent="wGOctn8nHw5DIO8HDX3O-13" vertex="1"><mxGeometry y="70" width="160" height="22" as="geometry"/></mxCell><mxCell id="wGOctn8nHw5DIO8HDX3O-18" style="edgeStyle=orthogonalEdgeStyle;rounded=0;orthogonalLoop=1;jettySize=auto;html=1;labelBackgroundColor=#F1FAEE;strokeColor=#457B9D;fontColor=#1D3557;" parent="1" source="wGOctn8nHw5DIO8HDX3O-17" target="wGOctn8nHw5DIO8HDX3O-13" edge="1"><mxGeometry relative="1" as="geometry"/></mxCell><mxCell id="wGOctn8nHw5DIO8HDX3O-17" value="Twilio Initializer initializes using first two parameters." style="rounded=1;whiteSpace=wrap;html=1;fillColor=#A8DADC;strokeColor=#457B9D;fontColor=#1D3557;" parent="1" vertex="1"><mxGeometry x="540" y="160" width="160" height="50" as="geometry"/></mxCell><mxCell id="wGOctn8nHw5DIO8HDX3O-22" style="edgeStyle=orthogonalEdgeStyle;rounded=0;orthogonalLoop=1;jettySize=auto;html=1;exitX=0.5;exitY=0;exitDx=0;exitDy=0;entryX=0;entryY=1;entryDx=0;entryDy=0;labelBackgroundColor=#F1FAEE;strokeColor=#457B9D;fontColor=#1D3557;" parent="1" source="wGOctn8nHw5DIO8HDX3O-19" target="wGOctn8nHw5DIO8HDX3O-8" edge="1"><mxGeometry relative="1" as="geometry"/></mxCell><mxCell id="wGOctn8nHw5DIO8HDX3O-19" value="Notification Service" style="swimlane;html=1;fontStyle=1;align=center;verticalAlign=top;childLayout=stackLayout;horizontal=1;startSize=26;horizontalStack=0;resizeParent=1;resizeLast=0;collapsible=1;marginBottom=0;swimlaneFillColor=#ffffff;rounded=0;shadow=0;comic=0;labelBackgroundColor=none;strokeWidth=1;fillColor=#A8DADC;fontFamily=Verdana;fontSize=12;strokeColor=#457B9D;fontColor=#1D3557;" parent="1" vertex="1"><mxGeometry x="230" y="220" width="180" height="100" as="geometry"><mxRectangle x="90" y="70" width="130" height="30" as="alternateBounds"/></mxGeometry></mxCell><mxCell id="wGOctn8nHw5DIO8HDX3O-20" value="+ sendCreditDebitNotification()" style="text;html=1;strokeColor=none;fillColor=none;align=left;verticalAlign=top;spacingLeft=4;spacingRight=4;whiteSpace=wrap;overflow=hidden;rotatable=0;points=[[0,0.5],[1,0.5]];portConstraint=eastwest;fontColor=#1D3557;" parent="wGOctn8nHw5DIO8HDX3O-19" vertex="1"><mxGeometry y="26" width="180" height="54" as="geometry"/></mxCell><mxCell id="wGOctn8nHw5DIO8HDX3O-21" style="edgeStyle=orthogonalEdgeStyle;rounded=0;orthogonalLoop=1;jettySize=auto;html=1;exitX=0;exitY=0.5;exitDx=0;exitDy=0;entryX=0.5;entryY=1;entryDx=0;entryDy=0;labelBackgroundColor=#F1FAEE;strokeColor=#457B9D;fontColor=#1D3557;" parent="1" source="wGOctn8nHw5DIO8HDX3O-20" target="wGOctn8nHw5DIO8HDX3O-1" edge="1"><mxGeometry relative="1" as="geometry"/></mxCell></root></mxGraphModel></diagram><diagram id="o0-NpKccNwat5osPpMq-" name="Page-3"><mxGraphModel dx="1329" dy="1546" grid="1" gridSize="10" guides="1" tooltips="1" connect="1" arrows="1" fold="1" page="1" pageScale="1" pageWidth="850" pageHeight="1100" background="#F1FAEE" math="0" shadow="0"><root><mxCell id="0"/><mxCell id="1" parent="0"/><mxCell id="wiANxTIbeL8l7QfbxNM1-1" value="&lt;ol style=&quot;font-size: 16px;&quot;&gt;&lt;li&gt;&lt;font style=&quot;font-size: 16px;&quot;&gt;We are setting &quot;userId&quot; as the claims in jwt token, for extracting it while changing the password.&lt;/font&gt;&lt;/li&gt;&lt;li&gt;&lt;span style=&quot;&quot;&gt;Security Config contains Spring Security Configuration for authenticating secured URLs.&lt;/span&gt;&lt;/li&gt;&lt;li&gt;&lt;span style=&quot;&quot;&gt;We have used Custom Exception Handler to handle exceptions.&lt;/span&gt;&lt;/li&gt;&lt;li&gt;&lt;span style=&quot;&quot;&gt;Extended the class with ResponseEntityExceptionHandler.&lt;/span&gt;&lt;/li&gt;&lt;/ol&gt;" style="rounded=1;whiteSpace=wrap;html=1;fillColor=#A8DADC;strokeColor=#457B9D;align=left;fontColor=#1D3557;" parent="1" vertex="1"><mxGeometry x="-800" y="-1080" width="950" height="140" as="geometry"/></mxCell><mxCell id="uTMIGJBGYb7fcW4X1WUm-1" value="Transaction" style="swimlane;html=1;fontStyle=1;align=center;verticalAlign=top;childLayout=stackLayout;horizontal=1;startSize=26;horizontalStack=0;resizeParent=1;resizeLast=0;collapsible=1;marginBottom=0;swimlaneFillColor=#ffffff;rounded=0;shadow=0;comic=0;labelBackgroundColor=none;strokeWidth=1;fillColor=#A8DADC;fontFamily=Verdana;fontSize=12;strokeColor=#457B9D;fontColor=#1D3557;" parent="1" vertex="1"><mxGeometry x="-770" y="-880" width="160" height="290" as="geometry"/></mxCell><mxCell id="uTMIGJBGYb7fcW4X1WUm-2" value="- Id: Integer" style="text;html=1;strokeColor=none;fillColor=none;align=left;verticalAlign=top;spacingLeft=4;spacingRight=4;whiteSpace=wrap;overflow=hidden;rotatable=0;points=[[0,0.5],[1,0.5]];portConstraint=eastwest;fontColor=#1D3557;" parent="uTMIGJBGYb7fcW4X1WUm-1" vertex="1"><mxGeometry y="26" width="160" height="26" as="geometry"/></mxCell><mxCell id="uTMIGJBGYb7fcW4X1WUm-3" value="- senderAccount: String" style="text;html=1;strokeColor=none;fillColor=none;align=left;verticalAlign=top;spacingLeft=4;spacingRight=4;whiteSpace=wrap;overflow=hidden;rotatable=0;points=[[0,0.5],[1,0.5]];portConstraint=eastwest;fontColor=#1D3557;" parent="uTMIGJBGYb7fcW4X1WUm-1" vertex="1"><mxGeometry y="52" width="160" height="28" as="geometry"/></mxCell><mxCell id="uTMIGJBGYb7fcW4X1WUm-29" value="- receiverAccount: String" style="text;html=1;strokeColor=none;fillColor=none;align=left;verticalAlign=top;spacingLeft=4;spacingRight=4;whiteSpace=wrap;overflow=hidden;rotatable=0;points=[[0,0.5],[1,0.5]];portConstraint=eastwest;fontColor=#1D3557;" parent="uTMIGJBGYb7fcW4X1WUm-1" vertex="1"><mxGeometry y="80" width="160" height="28" as="geometry"/></mxCell><mxCell id="uTMIGJBGYb7fcW4X1WUm-4" value="- amount: BigDecimal" style="text;html=1;strokeColor=none;fillColor=none;align=left;verticalAlign=top;spacingLeft=4;spacingRight=4;whiteSpace=wrap;overflow=hidden;rotatable=0;points=[[0,0.5],[1,0.5]];portConstraint=eastwest;fontColor=#1D3557;" parent="uTMIGJBGYb7fcW4X1WUm-1" vertex="1"><mxGeometry y="108" width="160" height="32" as="geometry"/></mxCell><mxCell id="uTMIGJBGYb7fcW4X1WUm-5" value="- senderName: String" style="text;html=1;strokeColor=none;fillColor=none;align=left;verticalAlign=top;spacingLeft=4;spacingRight=4;whiteSpace=wrap;overflow=hidden;rotatable=0;points=[[0,0.5],[1,0.5]];portConstraint=eastwest;fontColor=#1D3557;" parent="uTMIGJBGYb7fcW4X1WUm-1" vertex="1"><mxGeometry y="140" width="160" height="30" as="geometry"/></mxCell><mxCell id="uTMIGJBGYb7fcW4X1WUm-30" value="- receiverName: String" style="text;html=1;strokeColor=none;fillColor=none;align=left;verticalAlign=top;spacingLeft=4;spacingRight=4;whiteSpace=wrap;overflow=hidden;rotatable=0;points=[[0,0.5],[1,0.5]];portConstraint=eastwest;fontColor=#1D3557;" parent="uTMIGJBGYb7fcW4X1WUm-1" vertex="1"><mxGeometry y="170" width="160" height="30" as="geometry"/></mxCell><mxCell id="uTMIGJBGYb7fcW4X1WUm-6" value="- status: Status" style="text;html=1;strokeColor=none;fillColor=none;align=left;verticalAlign=top;spacingLeft=4;spacingRight=4;whiteSpace=wrap;overflow=hidden;rotatable=0;points=[[0,0.5],[1,0.5]];portConstraint=eastwest;fontColor=#1D3557;" parent="uTMIGJBGYb7fcW4X1WUm-1" vertex="1"><mxGeometry y="200" width="160" height="26" as="geometry"/></mxCell><mxCell id="uTMIGJBGYb7fcW4X1WUm-7" value="- refNumber: String" style="text;html=1;strokeColor=none;fillColor=none;align=left;verticalAlign=top;spacingLeft=4;spacingRight=4;whiteSpace=wrap;overflow=hidden;rotatable=0;points=[[0,0.5],[1,0.5]];portConstraint=eastwest;fontColor=#1D3557;" parent="uTMIGJBGYb7fcW4X1WUm-1" vertex="1"><mxGeometry y="226" width="160" height="26" as="geometry"/></mxCell><mxCell id="uTMIGJBGYb7fcW4X1WUm-8" value="- timeStamps: LocalDateTime" style="text;html=1;strokeColor=none;fillColor=none;align=left;verticalAlign=top;spacingLeft=4;spacingRight=4;whiteSpace=wrap;overflow=hidden;rotatable=0;points=[[0,0.5],[1,0.5]];portConstraint=eastwest;fontColor=#1D3557;" parent="uTMIGJBGYb7fcW4X1WUm-1" vertex="1"><mxGeometry y="252" width="160" height="38" as="geometry"/></mxCell><mxCell id="uTMIGJBGYb7fcW4X1WUm-9" value="TransactionStatus" style="swimlane;html=1;fontStyle=1;align=center;verticalAlign=top;childLayout=stackLayout;horizontal=1;startSize=26;horizontalStack=0;resizeParent=1;resizeLast=0;collapsible=1;marginBottom=0;swimlaneFillColor=#ffffff;rounded=0;shadow=0;comic=0;labelBackgroundColor=none;strokeWidth=1;fillColor=#A8DADC;fontFamily=Verdana;fontSize=12;strokeColor=#457B9D;fontColor=#1D3557;" parent="1" vertex="1"><mxGeometry x="-570" y="-880.0000000000001" width="160" height="150" as="geometry"/></mxCell><mxCell id="uTMIGJBGYb7fcW4X1WUm-10" value="PENDING" style="text;html=1;strokeColor=none;fillColor=none;align=left;verticalAlign=top;spacingLeft=4;spacingRight=4;whiteSpace=wrap;overflow=hidden;rotatable=0;points=[[0,0.5],[1,0.5]];portConstraint=eastwest;fontColor=#1D3557;" parent="uTMIGJBGYb7fcW4X1WUm-9" vertex="1"><mxGeometry y="26" width="160" height="26" as="geometry"/></mxCell><mxCell id="uTMIGJBGYb7fcW4X1WUm-11" value="FAIL" style="text;html=1;strokeColor=none;fillColor=none;align=left;verticalAlign=top;spacingLeft=4;spacingRight=4;whiteSpace=wrap;overflow=hidden;rotatable=0;points=[[0,0.5],[1,0.5]];portConstraint=eastwest;fontColor=#1D3557;" parent="uTMIGJBGYb7fcW4X1WUm-9" vertex="1"><mxGeometry y="52" width="160" height="26" as="geometry"/></mxCell><mxCell id="uTMIGJBGYb7fcW4X1WUm-12" value="SUCCESS" style="text;html=1;strokeColor=none;fillColor=none;align=left;verticalAlign=top;spacingLeft=4;spacingRight=4;whiteSpace=wrap;overflow=hidden;rotatable=0;points=[[0,0.5],[1,0.5]];portConstraint=eastwest;fontColor=#1D3557;" parent="uTMIGJBGYb7fcW4X1WUm-9" vertex="1"><mxGeometry y="78" width="160" height="26" as="geometry"/></mxCell><mxCell id="uTMIGJBGYb7fcW4X1WUm-18" value="TransactionService" style="swimlane;html=1;fontStyle=1;align=center;verticalAlign=top;childLayout=stackLayout;horizontal=1;startSize=26;horizontalStack=0;resizeParent=1;resizeLast=0;collapsible=1;marginBottom=0;swimlaneFillColor=#ffffff;rounded=0;shadow=0;comic=0;labelBackgroundColor=none;strokeWidth=1;fillColor=#A8DADC;fontFamily=Verdana;fontSize=12;strokeColor=#457B9D;fontColor=#1D3557;" parent="1" vertex="1"><mxGeometry x="-395" y="-796" width="210" height="206" as="geometry"/></mxCell><mxCell id="uTMIGJBGYb7fcW4X1WUm-19" value="" style="line;html=1;strokeWidth=1;fillColor=none;align=left;verticalAlign=middle;spacingTop=-1;spacingLeft=3;spacingRight=3;rotatable=0;labelPosition=right;points=[];portConstraint=eastwest;labelBackgroundColor=#F1FAEE;strokeColor=#457B9D;fontColor=#1D3557;" parent="uTMIGJBGYb7fcW4X1WUm-18" vertex="1"><mxGeometry y="26" width="210" height="8" as="geometry"/></mxCell><mxCell id="uTMIGJBGYb7fcW4X1WUm-20" value="+ transferFund():&amp;nbsp;" style="text;html=1;strokeColor=none;fillColor=none;align=left;verticalAlign=top;spacingLeft=4;spacingRight=4;whiteSpace=wrap;overflow=hidden;rotatable=0;points=[[0,0.5],[1,0.5]];portConstraint=eastwest;fontColor=#1D3557;" parent="uTMIGJBGYb7fcW4X1WUm-18" vertex="1"><mxGeometry y="34" width="210" height="26" as="geometry"/></mxCell><mxCell id="uTMIGJBGYb7fcW4X1WUm-21" value="+ saveNewTransaction(): Async" style="text;html=1;strokeColor=none;fillColor=none;align=left;verticalAlign=top;spacingLeft=4;spacingRight=4;whiteSpace=wrap;overflow=hidden;rotatable=0;points=[[0,0.5],[1,0.5]];portConstraint=eastwest;fontColor=#1D3557;" parent="uTMIGJBGYb7fcW4X1WUm-18" vertex="1"><mxGeometry y="60" width="210" height="30" as="geometry"/></mxCell><mxCell id="uTMIGJBGYb7fcW4X1WUm-22" value="+ getTransactionByUserId():" style="text;html=1;strokeColor=none;fillColor=none;align=left;verticalAlign=top;spacingLeft=4;spacingRight=4;whiteSpace=wrap;overflow=hidden;rotatable=0;points=[[0,0.5],[1,0.5]];portConstraint=eastwest;fontColor=#1D3557;" parent="uTMIGJBGYb7fcW4X1WUm-18" vertex="1"><mxGeometry y="90" width="210" height="26" as="geometry"/></mxCell><mxCell id="uTMIGJBGYb7fcW4X1WUm-23" value="+ generateTransactionStatement():" style="text;html=1;strokeColor=none;fillColor=none;align=left;verticalAlign=top;spacingLeft=4;spacingRight=4;whiteSpace=wrap;overflow=hidden;rotatable=0;points=[[0,0.5],[1,0.5]];portConstraint=eastwest;fontColor=#1D3557;" parent="uTMIGJBGYb7fcW4X1WUm-18" vertex="1"><mxGeometry y="116" width="210" height="34" as="geometry"/></mxCell><mxCell id="uTMIGJBGYb7fcW4X1WUm-24" value="+ updateTransPin():" style="text;html=1;strokeColor=none;fillColor=none;align=left;verticalAlign=top;spacingLeft=4;spacingRight=4;whiteSpace=wrap;overflow=hidden;rotatable=0;points=[[0,0.5],[1,0.5]];portConstraint=eastwest;fontColor=#1D3557;" parent="uTMIGJBGYb7fcW4X1WUm-18" vertex="1"><mxGeometry y="150" width="210" height="26" as="geometry"/></mxCell><mxCell id="uTMIGJBGYb7fcW4X1WUm-26" style="edgeStyle=orthogonalEdgeStyle;rounded=0;orthogonalLoop=1;jettySize=auto;html=1;entryX=0.5;entryY=0;entryDx=0;entryDy=0;labelBackgroundColor=#F1FAEE;strokeColor=#457B9D;fontColor=#1D3557;" parent="1" source="uTMIGJBGYb7fcW4X1WUm-27" target="uTMIGJBGYb7fcW4X1WUm-18" edge="1"><mxGeometry relative="1" as="geometry"/></mxCell><mxCell id="uTMIGJBGYb7fcW4X1WUm-27" value="Generates a 10 Digit Ref&amp;nbsp; Number using SecureRandom" style="rounded=0;whiteSpace=wrap;html=1;fillColor=#A8DADC;strokeColor=#457B9D;fontColor=#1D3557;" parent="1" vertex="1"><mxGeometry x="-370" y="-880" width="160" height="60" as="geometry"/></mxCell><mxCell id="uTMIGJBGYb7fcW4X1WUm-31" style="edgeStyle=orthogonalEdgeStyle;rounded=0;orthogonalLoop=1;jettySize=auto;html=1;exitX=0;exitY=0.5;exitDx=0;exitDy=0;entryX=1;entryY=0.5;entryDx=0;entryDy=0;labelBackgroundColor=#F1FAEE;strokeColor=#457B9D;fontColor=#1D3557;" parent="1" source="uTMIGJBGYb7fcW4X1WUm-12" target="uTMIGJBGYb7fcW4X1WUm-6" edge="1"><mxGeometry relative="1" as="geometry"/></mxCell><mxCell id="Dca65yZfUyZ78T4Xu1ZA-2" style="edgeStyle=orthogonalEdgeStyle;rounded=0;orthogonalLoop=1;jettySize=auto;html=1;entryX=0.5;entryY=1;entryDx=0;entryDy=0;fillColor=#A8DADC;strokeColor=#457B9D;labelBackgroundColor=#F1FAEE;fontColor=#1D3557;" parent="1" source="Dca65yZfUyZ78T4Xu1ZA-1" target="uTMIGJBGYb7fcW4X1WUm-18" edge="1"><mxGeometry relative="1" as="geometry"/></mxCell><mxCell id="Dca65yZfUyZ78T4Xu1ZA-1" value="We are also providing pdf for transaction report." style="rounded=0;whiteSpace=wrap;html=1;fillColor=#A8DADC;strokeColor=#457B9D;fontColor=#1D3557;" parent="1" vertex="1"><mxGeometry x="-515" y="-550" width="120" height="60" as="geometry"/></mxCell></root></mxGraphModel></diagram></mxfile>